HIERARCHY
ROOT Hips
{
	OFFSET 0.000000 0.000000 0.000000
	CHANNELS 6 Xposition Yposition Zposition Xrotation Yrotation Zrotation
	JOINT LeftUpLeg_virtual
	{
		OFFSET 0.000000 0.000000 0.000000
		CHANNELS 3 Xrotation Yrotation Zrotation
		JOINT LeftUpLeg
		{
			OFFSET 13.026900 -6.336304 -1.092800
			CHANNELS 3 Xrotation Yrotation Zrotation
			JOINT LeftLeg
			{
				OFFSET 0.524474 -46.096886 9.782700
				CHANNELS 3 Xrotation Yrotation Zrotation
				JOINT LeftFoot
				{
					OFFSET -0.524474 -53.427422 -12.948200
					CHANNELS 3 Xrotation Yrotation Zrotation
					JOINT LeftToeBase
					{
						OFFSET 0.192200 -14.009700 16.364100
						CHANNELS 3 Xrotation Yrotation Zrotation
						JOINT LeftToe_End
						{
							OFFSET -1.784700 -0.561700 9.474800
							CHANNELS 3 Xrotation Yrotation Zrotation
							End Site
							{
								OFFSET 0 0 0
							}
						}
					}
				}
			}
		}
	}
	JOINT RightUpLeg_virtual
	{
		OFFSET 0.000000 0.000000 0.000000
		CHANNELS 3 Xrotation Yrotation Zrotation
		JOINT RightUpLeg
		{
			OFFSET -12.883000 -6.336304 -1.092800
			CHANNELS 3 Xrotation Yrotation Zrotation
			JOINT RightLeg
			{
				OFFSET -0.524587 -46.096825 9.782800
				CHANNELS 3 Xrotation Yrotation Zrotation
				JOINT RightFoot
				{
					OFFSET 0.524587 -53.427383 -12.948300
					CHANNELS 3 Xrotation Yrotation Zrotation
					JOINT RightToeBase
					{
						OFFSET -0.192200 -14.009700 16.364100
						CHANNELS 3 Xrotation Yrotation Zrotation
						JOINT RightToe_End
						{
							OFFSET 1.784700 -0.561700 9.474800
							CHANNELS 3 Xrotation Yrotation Zrotation
							End Site
							{
								OFFSET 0 0 0
							}
						}
					}
				}
			}
		}
	}
	JOINT Spine_virtual
	{
		OFFSET 0.000000 0.000000 0.000000
		CHANNELS 3 Xrotation Yrotation Zrotation
		JOINT Spine
		{
			OFFSET 0.072000 7.257294 -0.789700
			CHANNELS 3 Xrotation Yrotation Zrotation
			JOINT Spine1
			{
				OFFSET 0.000000 12.508769 -0.658067
				CHANNELS 3 Xrotation Yrotation Zrotation
				JOINT Spine1_split
				{
					OFFSET 0.000000 12.508769 -0.658067
					CHANNELS 3 Xrotation Yrotation Zrotation
					JOINT Spine2
					{
						OFFSET 0.000000 12.508769 -0.658067
						CHANNELS 3 Xrotation Yrotation Zrotation
						JOINT Neck_virtual
						{
							OFFSET 0.000000 0.000000 0.000000
							CHANNELS 3 Xrotation Yrotation Zrotation
							JOINT Neck
							{
								OFFSET 0.000000 14.033295 7.520400
								CHANNELS 3 Xrotation Yrotation Zrotation
								JOINT Head
								{
									OFFSET 0.000000 8.198502 5.703100
									CHANNELS 3 Xrotation Yrotation Zrotation
									JOINT HeadTop_End
									{
										OFFSET 0.000000 17.760803 13.332701
										CHANNELS 3 Xrotation Yrotation Zrotation
										End Site
										{
											OFFSET 0 0 0
										}
									}
								}
							}
						}
						JOINT LeftShoulder_virtual
						{
							OFFSET 0.000000 0.000000 0.000000
							CHANNELS 3 Xrotation Yrotation Zrotation
							JOINT LeftShoulder
							{
								OFFSET 6.292450 5.785301 -0.669000
								CHANNELS 3 Xrotation Yrotation Zrotation
								JOINT LeftShoulder_split
								{
									OFFSET 6.292450 5.785301 -0.669000
									CHANNELS 3 Xrotation Yrotation Zrotation
									JOINT LeftArm
									{
										OFFSET 13.907140 -6.093903 1.965100
										CHANNELS 3 Xrotation Yrotation Zrotation
										JOINT LeftForeArm
										{
											OFFSET 34.140198 0.000000 0.000000
											CHANNELS 3 Xrotation Yrotation Zrotation
											JOINT LeftHand
											{
												OFFSET 40.960209 0.000000 0.000000
												CHANNELS 3 Xrotation Yrotation Zrotation
												End Site
												{
													OFFSET 0 0 0
												}
											}
										}
									}
								}
							}
						}
						JOINT RightShoulder_virtual
						{
							OFFSET 0.000000 0.000000 0.000000
							CHANNELS 3 Xrotation Yrotation Zrotation
							JOINT RightShoulder
							{
								OFFSET -6.292450 5.785301 -0.669000
								CHANNELS 3 Xrotation Yrotation Zrotation
								JOINT RightShoulder_split
								{
									OFFSET -6.292450 5.785301 -0.669000
									CHANNELS 3 Xrotation Yrotation Zrotation
									JOINT RightArm
									{
										OFFSET -13.907140 -6.093903 1.965100
										CHANNELS 3 Xrotation Yrotation Zrotation
										JOINT RightForeArm
										{
											OFFSET -34.140198 0.000000 0.000000
											CHANNELS 3 Xrotation Yrotation Zrotation
											JOINT RightHand
											{
												OFFSET -40.960209 0.000000 0.000000
												CHANNELS 3 Xrotation Yrotation Zrotation
												End Site
												{
													OFFSET 0 0 0
												}
											}
										}
									}
								}
							}
						}
					}
				}
			}
		}
	}
}
MOTION
Frames: 4
Frame Time: 0.03333333
-123.519165 90.077675 -8.626461 0.000000 0.000000 0.000000 16.895521 -61.924203 16.383944 -60.943415 -14.660064 9.441440 41.796998 -3.382577 0.000682 14.151170 4.601558 -18.907953 -2.365242 -0.463749 0.014424 0.000000 0.000000 0.000000 16.029800 -60.868576 16.478369 -45.247172 -2.983487 -12.579468 83.209019 7.736190 -7.722903 -14.746822 3.995431 18.245397 -15.385904 2.304105 -9.741817 0.000000 0.000000 0.000000 16.183597 -57.507987 14.213212 15.011318 3.595278 -6.542726 16.354516 3.990389 -5.183908 0.597502 -1.706160 1.012764 0.000000 0.000000 0.000000 16.460314 4.259475 -5.127041 -10.070718 14.645239 7.280996 -12.294222 15.120700 0.032318 0.000000 0.000000 0.000000 17.385705 3.581921 -4.833246 -0.600226 -9.317992 11.555269 -2.498499 -3.665800 -5.128687 -31.972956 17.202388 -21.755285 0.451762 -68.349129 -1.423507 0.000000 0.000000 0.000000 15.959005 3.874237 -4.811743 -1.696025 12.916690 16.828533 3.017430 3.496348 -0.158194 -43.713231 -1.733608 42.532350 -42.603988 71.018886 39.010871 0.000000 0.000000 0.000000 
-127.724625 89.079231 -8.036274 0.000000 0.000000 0.000000 11.608196 -62.720541 10.909299 -56.259005 -17.724230 11.814322 47.498379 -5.469325 -0.294975 10.263609 5.230806 -17.543602 -0.283034 -0.365251 -0.379457 0.000000 0.000000 0.000000 11.519479 -62.646113 11.909674 -48.308794 -1.257420 -15.023018 82.318280 7.477372 -6.762268 -10.441717 2.866310 17.111465 -11.057739 1.547664 -7.130647 0.000000 0.000000 0.000000 14.128082 -59.830668 11.605279 15.334815 3.321845 -6.540533 16.014447 3.064969 -5.674806 0.857529 -1.676070 0.925127 0.000000 0.000000 0.000000 16.105265 3.179732 -5.689127 -12.660679 16.587405 6.463525 -13.059402 17.884058 0.639129 0.000000 0.000000 0.000000 17.161557 2.623347 -5.430601 -0.805613 -10.123379 10.163564 -3.778349 -4.638784 -6.285364 -34.341764 16.949495 -20.211244 0.277753 -69.272755 -0.693213 0.000000 0.000000 0.000000 15.699868 2.886972 -5.414899 -2.130699 12.917737 15.376941 3.230673 4.327729 0.409516 -42.706410 -2.714567 44.125802 -40.934860 71.686175 37.298618 0.000000 0.000000 0.000000 
-131.882584 89.381653 -7.423199 0.000000 0.000000 0.000000 6.817761 -62.325585 5.901255 -50.472226 -19.930191 13.808455 49.397800 -6.756663 -0.368891 4.485719 5.988790 -15.567690 1.930556 -0.254479 -0.919895 0.000000 0.000000 0.000000 7.245959 -62.940528 7.504808 -49.004090 1.076425 -16.513111 76.443641 6.288259 -5.511029 -7.800122 0.003822 14.962214 -5.301251 0.632152 -3.326025 0.000000 0.000000 0.000000 11.527834 -61.496988 8.670892 15.395593 3.039780 -6.126432 15.560047 2.337148 -6.025079 1.012920 -1.302333 0.736086 0.000000 0.000000 0.000000 15.551898 2.370055 -6.127428 -14.896154 18.616428 5.789999 -12.532764 20.942967 1.029677 0.000000 0.000000 0.000000 16.686743 1.906547 -5.848173 -1.340528 -11.194448 7.369845 -4.482943 -4.979065 -7.013261 -35.232595 16.326584 -21.013253 0.972730 -71.202318 0.686819 0.000000 0.000000 0.000000 15.343916 2.147499 -5.802188 -2.472190 12.999733 13.686879 3.542532 4.899513 0.948037 -41.567196 -4.198228 44.686144 -40.848944 73.365972 37.304581 0.000000 0.000000 0.000000 
-135.576797 90.084854 -6.841831 0.000000 0.000000 0.000000 3.423859 -61.658501 2.239400 -44.970491 -20.828365 15.555322 48.867855 -7.860289 -0.466756 -1.442685 5.539891 -13.656056 1.411038 -0.226786 -1.104436 0.000000 0.000000 0.000000 3.324531 -62.567948 3.489602 -47.809405 3.137171 -17.318462 68.301864 4.799602 -4.708808 -6.912887 -3.039333 13.565633 -0.017319 -0.042475 0.381714 0.000000 0.000000 0.000000 8.742120 -62.449355 5.848960 15.170625 2.826216 -5.484134 14.973743 1.838846 -6.277366 0.791845 -1.160388 0.448075 0.000000 0.000000 0.000000 14.902508 1.859943 -6.422535 -16.531807 20.493136 5.143649 -10.803522 23.869828 1.156102 0.000000 0.000000 0.000000 15.997080 1.464886 -6.120430 -2.186700 -12.386415 3.513651 -4.659960 -4.393673 -6.656487 -33.836733 15.317077 -23.295637 2.182464 -72.976917 2.247436 0.000000 0.000000 0.000000 14.872204 1.676506 -5.996292 -2.673014 13.027428 11.972166 3.924094 5.056934 1.339960 -40.502919 -6.581550 44.355105 -46.349240 76.790615 43.011235 0.000000 0.000000 0.000000 
